<svg id="fc1989a09f35769a0b135ac837853cca" xmlns="http://www.w3.org/2000/svg" viewBox="0 0 330.469 436.445">
  <path id="Path_1059" data-name="Path 1059" d="M424.056,10H164.57a35.406,35.406,0,0,0-35.4,35.4V430.823a3.043,3.043,0,0,0,0,2.494v.267c-.356.713-.178.757.178.534a12.633,12.633,0,0,0,12.38,10.777,12.483,12.483,0,0,0,10.153-5.433,5.716,5.716,0,0,0,.846-.49L293.489,319.717,435.545,439.952l4.275,3.518a11.44,11.44,0,0,0,19.193-7.481h.356V45.4A35.273,35.273,0,0,0,424.056,10Z" transform="translate(-128.9 -10)" fill="#007efc"/>
</svg>
