<svg xmlns="http://www.w3.org/2000/svg" viewBox="0 0 16.949 22.52">
  <g id="bookmark-white" transform="translate(-33.262)">
    <path id="Path_1056" data-name="Path 1056" d="M49.953.744a1.534,1.534,0,0,0-.7-.61A1.328,1.328,0,0,0,48.675,0H34.8a1.328,1.328,0,0,0-.583.134,1.533,1.533,0,0,0-.7.61,1.718,1.718,0,0,0-.258.923V20.853a1.719,1.719,0,0,0,.258.923,1.532,1.532,0,0,0,.7.61,1.327,1.327,0,0,0,.583.134,1.949,1.949,0,0,0,1.016-.626l5.923-6.177,6.015,6.254a1.576,1.576,0,0,0,.924.533,1.348,1.348,0,0,0,.583-.119,1.532,1.532,0,0,0,.7-.611,1.717,1.717,0,0,0,.258-.923V1.667A1.719,1.719,0,0,0,49.953.744ZM41.736,13.96l-7.3,7.391V1.171H48.9V21.35Z" fill="#00b8fc"/>
  </g>
</svg>
