<svg id="bookmark-white" xmlns="http://www.w3.org/2000/svg" viewBox="0 0 443.746 589.582">
  <path id="Path_1056" data-name="Path 1056" d="M470.253,19.489a40.151,40.151,0,0,0-18.2-15.978A34.773,34.773,0,0,0,436.8.005V0H73.474A34.757,34.757,0,0,0,58.222,3.5a40.122,40.122,0,0,0-18.2,15.978,44.977,44.977,0,0,0-6.761,24.159v502.3a45.01,45.01,0,0,0,6.761,24.166,40.113,40.113,0,0,0,18.2,15.974,34.738,34.738,0,0,0,15.251,3.5c12.938-3.745,18.279-7.811,26.6-16.377L255.136,411.494,412.6,575.23c8.091,8.3,11.74,10.63,24.193,13.959a35.291,35.291,0,0,0,15.257-3.111,40.116,40.116,0,0,0,18.2-15.984,44.953,44.953,0,0,0,6.756-24.157V43.648A45,45,0,0,0,470.253,19.489Z" transform="translate(-33.261)" fill="#007efc"/>
</svg>
