<?xml version="1.0" encoding="utf-8"?>
<!-- Svg Vector Icons : http://www.onlinewebfonts.com/icon -->
<!DOCTYPE svg PUBLIC "-//W3C//DTD SVG 1.1//EN" "http://www.w3.org/Graphics/SVG/1.1/DTD/svg11.dtd">
<svg version="1.1" xmlns="http://www.w3.org/2000/svg" xmlns:xlink="http://www.w3.org/1999/xlink" x="0px" y="0px" viewBox="0 0 1000 1000" enable-background="new 0 0 1000 1000" xml:space="preserve">
<metadata> Svg Vector Icons : http://www.onlinewebfonts.com/icon </metadata>
<g><path d="M818.2,985.2l0.2-0.1l-0.2-0.1V985.2z"/><path d="M791.7,10H209c-43.9,0-79.5,35.6-79.5,79.5v804.2v17V955c-0.1,1-0.6,1.8-0.6,2.8c0,1,0.5,1.8,0.6,2.8v0.6c-0.8,1.6-0.4,1.7,0.4,1.2c2.2,13.6,13.6,24.2,27.8,24.2c9.6,0,17.6-5,22.8-12.2c0.6-0.4,1.2-0.5,1.9-1.1l316.1-267.8l319,270l9.6,7.9c10.4,9.1,26,9,35.9-0.9c4.4-4.5,6.6-10.1,7.2-15.9h0.8v-55.9v-36.8V89.5C871.2,45.6,835.6,10,791.7,10z M818.2,804.6L818.2,804.6l-0.1,79.5v23.1L523,657.3c-1.2-2.2-2.4-4.5-4.2-6.4c-10.4-10.4-27.1-10.4-37.5,0L182.5,904.1v-20v-79.5V116c0-29.2,23.7-53,53-53h529.8c29.2,0,53,23.7,53,53L818.2,804.6L818.2,804.6z"/></g>
</svg>