<svg xmlns="http://www.w3.org/2000/svg" width="9.297" height="12.278" viewBox="0 0 9.297 12.278">
  <g id="fc1989a09f35769a0b135ac837853cca" transform="translate(-128.9 -10)">
    <path id="Path_1058" data-name="Path 1058" d="M818.2,985h0Z" transform="translate(-680.665 -962.786)" fill="#007efc"/>
    <path id="Path_1059" data-name="Path 1059" d="M137.2,10h-7.3a1,1,0,0,0-1,1V21.839a.086.086,0,0,0,0,.07v.008c-.01.02-.005.021.005.015a.355.355,0,0,0,.348.3.351.351,0,0,0,.286-.153.161.161,0,0,0,.024-.014l3.96-3.355,4,3.382.12.1a.322.322,0,0,0,.54-.21h.01V11A.992.992,0,0,0,137.2,10Z" fill="#007efc"/>
  </g>
</svg>
