<svg xmlns="http://www.w3.org/2000/svg" width="21.5" height="18.432" viewBox="0 0 21.5 18.432">
  <g id="chat-speech-bubbles" transform="translate(-2 -1.478)">
    <g id="comment-black-oval-bubble-shape" transform="translate(2 -35.029)">
      <path id="Path_858" data-name="Path 858" d="M20.061,40.328a9.726,9.726,0,0,0-3.911-2.8,13.947,13.947,0,0,0-5.4-1.026,14.266,14.266,0,0,0-4.175.606A11.677,11.677,0,0,0,3.144,38.75,8.185,8.185,0,0,0,.852,41.2,5.715,5.715,0,0,0,0,44.185a5.822,5.822,0,0,0,1.086,3.372,8.81,8.81,0,0,0,2.97,2.64,7.625,7.625,0,0,1-.312.912q-.18.432-.324.708a4.874,4.874,0,0,1-.39.612q-.246.336-.372.474l-.414.456q-.288.318-.372.414a.838.838,0,0,0-.1.108l-.084.1-.072.108q-.06.09-.054.114a.32.32,0,0,1-.024.12.159.159,0,0,0,.006.144v.012a.6.6,0,0,0,.21.348.47.47,0,0,0,.366.108,9.006,9.006,0,0,0,1.368-.264,13.113,13.113,0,0,0,5.519-2.9,16.414,16.414,0,0,0,1.74.1,13.943,13.943,0,0,0,5.4-1.026,9.724,9.724,0,0,0,3.911-2.8,5.887,5.887,0,0,0,0-7.714Z" transform="translate(0)"/>
    </g>
  </g>
</svg>
