<svg xmlns="http://www.w3.org/2000/svg" xmlns:xlink="http://www.w3.org/1999/xlink" viewBox="0 0 180.065 180.065">
  <defs>
    <linearGradient id="linear-gradient" x1="0.496" y1="0.296" x2="0.496" y2="1.307" gradientUnits="objectBoundingBox">
      <stop offset="0" stop-color="#fff465"/>
      <stop offset="1" stop-color="#ffe600"/>
    </linearGradient>
    <linearGradient id="linear-gradient-2" x1="0.496" y1="0.726" x2="0.496" y2="-0.285" xlink:href="#linear-gradient"/>
    <linearGradient id="linear-gradient-3" x1="0.721" y1="0.288" x2="-0.041" y2="1.05" xlink:href="#linear-gradient"/>
    <linearGradient id="linear-gradient-4" x1="1.013" y1="0.088" x2="-0.377" y2="0.699" gradientUnits="objectBoundingBox">
      <stop offset="0" stop-color="#ffe600" stop-opacity="0"/>
      <stop offset="1" stop-color="#f59500"/>
    </linearGradient>
  </defs>
  <g id="transaction" transform="translate(-4.639 -9.272)">
    <circle id="Ellipse_177" data-name="Ellipse 177" cx="90.033" cy="90.033" r="90.033" transform="translate(4.639 9.272)" fill="url(#linear-gradient)"/>
    <circle id="Ellipse_178" data-name="Ellipse 178" cx="85.578" cy="85.578" r="85.578" transform="translate(9.093 13.727)" fill="url(#linear-gradient-2)"/>
    <circle id="Ellipse_179" data-name="Ellipse 179" cx="69.052" cy="69.052" r="69.052" transform="translate(25.619 30.253)" fill="url(#linear-gradient-3)"/>
    <path id="Path_932" data-name="Path 932" d="M301.777,218.4l-43-43q-1.434-2.5-5.959-4.125a45,45,0,0,0-9.895-2.285l-4.618-4.12a2.67,2.67,0,0,0-1.183-1.764,4.372,4.372,0,0,0-2.636-.9,4.021,4.021,0,0,0-2.637.9,2.626,2.626,0,0,0-1.093,2.057v3.731a32.282,32.282,0,0,0-17.431,6.946q-7.013,5.789-7.011,16.965a27.317,27.317,0,0,0,.9,7.254,14.809,14.809,0,0,0,2.959,5.713,47.565,47.565,0,0,0,3.924,4.173c.065.061.138.122.208.183l16.45,16.488v21.521a22.389,22.389,0,0,1-10.042-2.953,42.526,42.526,0,0,1-6.823-4.814q-2.485-2.246-4.01-2.247a5.079,5.079,0,0,0-4.092,2.44A8.213,8.213,0,0,0,204,245.44q0,4,4.626,7.878l30.341,30.34A69.058,69.058,0,0,0,301.777,218.4Z" transform="translate(-138.144 -115.578)" fill="url(#linear-gradient-4)"/>
    <path id="Path_933" data-name="Path 933" d="M204,245.441a8.214,8.214,0,0,1,1.789-4.878,5.078,5.078,0,0,1,4.092-2.44q1.525,0,4.01,2.247a42.625,42.625,0,0,0,6.823,4.814,22.4,22.4,0,0,0,10.043,2.953V217.968q-3.858-1.411-5.917-2.248t-5.468-2.438a20.736,20.736,0,0,1-5.274-3.338,47.528,47.528,0,0,1-3.923-4.173,14.787,14.787,0,0,1-2.959-5.713,27.284,27.284,0,0,1-.9-7.254q0-11.174,7.011-16.965a32.282,32.282,0,0,1,17.431-6.946v-3.731a2.626,2.626,0,0,1,1.094-2.057,4.02,4.02,0,0,1,2.637-.9,4.368,4.368,0,0,1,2.636.9,2.559,2.559,0,0,1,1.223,2.057v3.473a47.238,47.238,0,0,1,14.473,2.637q6.625,2.382,6.625,6.625a9.185,9.185,0,0,1-1.557,4.824,4.711,4.711,0,0,1-4.151,2.508q-1.025,0-5.633-2.187a27.357,27.357,0,0,0-9.756-2.573v26.07a84.242,84.242,0,0,1,8.507,3.66,41.219,41.219,0,0,1,7.166,4.814,19.257,19.257,0,0,1,5.693,7.767,28.852,28.852,0,0,1,1.919,10.977q0,11.492-6.269,18.271t-17.015,8.327v4.3a2.5,2.5,0,0,1-1.223,2.021,4.415,4.415,0,0,1-2.636.885,4.073,4.073,0,0,1-2.637-.882,2.569,2.569,0,0,1-1.094-2.022v-3.914q-11.191-.13-18.975-5.121T204,245.441Zm15.052-53.918q0,5.008,3.119,7.638a31.839,31.839,0,0,0,9.359,4.942V180.717Q219.047,182.26,219.049,191.522Zm18.524,56.357q11.32-2.054,11.321-12.709,0-5.647-2.959-8.856a24.1,24.1,0,0,0-8.362-5.521v27.087Z" transform="translate(-138.143 -115.578)" fill="#ffb92d"/>
  </g>
</svg>
