<svg height="512pt" viewBox="0 -60 512 512" width="512pt" xmlns="http://www.w3.org/2000/svg"><path d="m192.800781 254.179688-23.347656-23.347657h-59.117187v50.335938h82.464843zm0 0"/><path d="m456.835938 0h-401.667969c-30.421875 0-55.167969 24.746094-55.167969 55.167969v41.230469h512v-41.230469c0-30.421875-24.746094-55.167969-55.164062-55.167969zm0 0"/><path d="m0 336.332031c0 30.421875 24.746094 55.167969 55.167969 55.167969h401.667969c30.417968 0 55.164062-24.746094 55.164062-55.167969v-209.933593h-512zm416.667969-25.164062h-80.332031c-8.285157 0-15-6.71875-15-15 0-8.285157 6.714843-15 15-15h80.332031c8.28125 0 15 6.714843 15 15 0 8.28125-6.71875 15-15 15zm-128.535157-110.335938h128.535157c8.28125 0 15 6.71875 15 15 0 8.285157-6.71875 15-15 15h-128.535157c-8.28125 0-15-6.714843-15-15 0-8.28125 6.71875-15 15-15zm-207.796874 15c0-8.28125 6.714843-15 15-15h80.332031c3.976562 0 7.792969 1.582031 10.605469 4.394531l32.132812 32.132813c2.8125 2.816406 4.394531 6.628906 4.394531 10.609375v48.199219c0 8.28125-6.714843 15-15 15h-112.464843c-8.285157 0-15-6.71875-15-15zm0 0"/></svg>