<svg xmlns="http://www.w3.org/2000/svg" width="178.66" height="180" viewBox="0 0 178.66 180"><g transform="translate(54.751 51.138)"><path d="M0,0H45.374a.5.5,0,0,1,.5.5V78.073a.5.5,0,0,1-.5.5H0a0,0,0,0,1,0,0V0A0,0,0,0,1,0,0Z" transform="translate(11.469)" fill="#cbd1d8"/><path d="M.5,0H9.175a0,0,0,0,1,0,0V78.573a0,0,0,0,1,0,0H.5a.5.5,0,0,1-.5-.5V.5A.5.5,0,0,1,.5,0Z" fill="#413500"/><rect width="23" height="4" transform="translate(22.249 11.862)" fill="#413500"/><rect width="17" height="4" transform="translate(26.249 19.862)" fill="#413500"/></g><g transform="translate(46)"><path d="M-188.34,16109.494s-7.489,7.323-16.2,8.025c-3.894.313-7.84-1.3-11.514-2.619-3.9-1.395-3.892-2.257-10.3-2.6s-17.625,0-17.625,0-4.98.18-5.532-3.838,3.759-5.4,3.759-5.4l19.4-5.751s-10.189-5.561-13.731-5.729-43.836,8.133-43.836,8.133a5.612,5.612,0,0,1-5.836-3.494c-1.835-4.127,2.471-6.626,2.471-6.626s39.871-18.823,44.812-19.014,54.139,8.929,54.139,8.929Z" transform="translate(290.217 -16069.137)" fill="#000"/><rect width="24" height="54" transform="translate(108.66)" fill="#000"/></g><g transform="translate(0 126)"><path d="M-290.217,16078.643s7.489-7.323,16.2-8.025c3.894-.313,7.84,1.3,11.514,2.619,3.9,1.395,3.892,2.257,10.3,2.6s17.625,0,17.625,0,4.98-.18,5.532,3.838-3.759,5.4-3.759,5.4l-19.4,5.751s10.189,5.561,13.731,5.729,43.836-8.133,43.836-8.133a5.612,5.612,0,0,1,5.836,3.494c1.835,4.127-2.471,6.626-2.471,6.626s-39.871,18.823-44.812,19.014-54.139-8.929-54.139-8.929Z" transform="translate(321 -16065)" fill="#000"/><rect width="24" height="54" fill="#000"/></g></svg>