<svg id="newsfeed" xmlns="http://www.w3.org/2000/svg" width="480" viewBox="0 0 480 480">
  <path id="Path_938" data-name="Path 938" d="M428.28,0H51.716A51.6,51.6,0,0,0,0,51.362v82.271A14.015,14.015,0,0,0,14.062,147.6H465.937A14.015,14.015,0,0,0,480,133.633V51.362A51.6,51.6,0,0,0,428.28,0Zm0,0" fill="#717171"/>
  <path id="Path_940" data-name="Path 940" d="M351.913,92.2H142.5a13.965,13.965,0,0,1,0-27.93H351.913a13.965,13.965,0,1,1,0,27.93Zm0,0" transform="translate(-7.207 -4.433)" fill="#e7f0ef"/>
  <path id="Path_941" data-name="Path 941" d="M0,143.535V438.042A51.845,51.845,0,0,0,51.716,489.9H428.28A51.848,51.848,0,0,0,480,438.042V143.535Zm0,0" transform="translate(0 -9.902)" fill="#9f9f9f"/>
  <path id="Path_943" data-name="Path 943" d="M138.063,208.867H78.231a13.966,13.966,0,0,0-13.965,13.964v59.833A13.967,13.967,0,0,0,78.231,296.63h59.836a13.967,13.967,0,0,0,13.966-13.966V222.832A13.97,13.97,0,0,0,138.063,208.867Zm0,0" transform="translate(-4.433 -12.749)" fill="#717171"/>
  <g id="Group_1122" data-name="Group 1122" transform="translate(59.832 196.856)">
    <path id="Path_944" data-name="Path 944" d="M416.179,301.064H206.765a13.965,13.965,0,0,1,0-27.931H416.182a13.965,13.965,0,1,1,0,27.931Zm0,0" transform="translate(-69.813 -213.301)" fill="#e2f1ff"/>
    <path id="Path_945" data-name="Path 945" d="M410.5,365.329H78.361a13.966,13.966,0,1,1,0-27.93H410.506a13.966,13.966,0,1,1,0,27.93Zm0,0" transform="translate(-64.266 -217.735)" fill="#e2f1ff"/>
    <path id="Path_946" data-name="Path 946" d="M410.5,429.6H78.361a13.966,13.966,0,1,1,0-27.93H410.506a13.966,13.966,0,1,1,0,27.93Zm0,0" transform="translate(-64.266 -222.168)" fill="#e2f1ff"/>
    <path id="Path_947" data-name="Path 947" d="M416.179,236.8H206.765a13.965,13.965,0,0,1,0-27.93H416.182a13.965,13.965,0,1,1,0,27.93Zm0,0" transform="translate(-69.813 -208.867)" fill="#e2f1ff"/>
  </g>
</svg>
