<svg xmlns="http://www.w3.org/2000/svg" xmlns:xlink="http://www.w3.org/1999/xlink" version="1.1" x="0px" y="0px" viewBox="0 0 90 112.5" enable-background="new 0 0 90 90" xml:space="preserve"><g><g><path d="M81.3,6.5H8.7C4.5,6.5,1,10,1,14.3v61.5c0,4.3,3.5,7.7,7.7,7.7h72.5c4.3,0,7.7-3.5,7.7-7.7V14.3C89,10,85.5,6.5,81.3,6.5z     M86,75.7c0,2.6-2.1,4.7-4.7,4.7H8.7c-2.6,0-4.7-2.1-4.7-4.7v-53h82V75.7z M86,19.7H4v-5.4c0-2.6,2.1-4.7,4.7-4.7h72.5    c2.6,0,4.7,2.1,4.7,4.7V19.7z M17.1,39h29.7c0.8,0,1.5-0.7,1.5-1.5S47.7,36,46.9,36H17.1c-0.8,0-1.5,0.7-1.5,1.5S16.3,39,17.1,39z     M17.1,52h29.7c0.8,0,1.5-0.7,1.5-1.5S47.7,49,46.9,49H17.1c-0.8,0-1.5,0.7-1.5,1.5S16.3,52,17.1,52z M17.1,65h55.7    c0.8,0,1.5-0.7,1.5-1.5S73.7,62,72.9,62H17.1c-0.8,0-1.5,0.7-1.5,1.5S16.3,65,17.1,65z"/></g></g></svg>