<svg id="settings" xmlns="http://www.w3.org/2000/svg" viewBox="0 0 180.105 180.106">
  <path id="Path_917" data-name="Path 917" d="M170.834,70.041h-16.85A6.47,6.47,0,0,1,149.408,59l11.914-11.91a9.28,9.28,0,0,0,0-13.118L146.136,18.784a9.5,9.5,0,0,0-13.118,0l-11.91,11.91a6.468,6.468,0,0,1-11.043-4.573V9.272A9.282,9.282,0,0,0,100.793,0H79.313a9.282,9.282,0,0,0-9.272,9.272v16.85A6.468,6.468,0,0,1,59,30.695l-11.91-11.91a9.5,9.5,0,0,0-13.118,0L18.784,33.97a9.28,9.28,0,0,0,0,13.118L30.7,59a6.47,6.47,0,0,1-4.576,11.043H9.272A9.282,9.282,0,0,0,0,79.313v21.476a9.283,9.283,0,0,0,9.272,9.275h16.85A6.47,6.47,0,0,1,30.7,121.108l-11.914,11.91a9.28,9.28,0,0,0,0,13.118L33.97,161.321a9.489,9.489,0,0,0,13.118,0L59,149.408a6.47,6.47,0,0,1,11.043,4.576v16.85a9.282,9.282,0,0,0,9.272,9.272h21.476a9.282,9.282,0,0,0,9.272-9.272v-16.85a6.47,6.47,0,0,1,11.043-4.576l11.91,11.914a9.5,9.5,0,0,0,13.118,0l15.186-15.186a9.28,9.28,0,0,0,0-13.118L149.4,121.108a6.47,6.47,0,0,1,4.579-11.043h16.85a9.282,9.282,0,0,0,9.272-9.272V79.313A9.282,9.282,0,0,0,170.834,70.041Zm2.6,30.751a2.6,2.6,0,0,1-2.6,2.6h-16.85a13.141,13.141,0,0,0-9.292,22.433l11.914,11.91a2.6,2.6,0,0,1,0,3.682L141.42,156.605a2.6,2.6,0,0,1-3.682,0l-11.91-11.914a13.141,13.141,0,0,0-22.433,9.292v16.85a2.6,2.6,0,0,1-2.6,2.6H79.313a2.6,2.6,0,0,1-2.6-2.6v-16.85a12.936,12.936,0,0,0-8.111-12.14,13.292,13.292,0,0,0-5.113-1.037,12.957,12.957,0,0,0-9.209,3.882L42.368,156.6a2.6,2.6,0,0,1-3.682,0L23.5,141.416a2.6,2.6,0,0,1,0-3.682l11.914-11.91a13.138,13.138,0,0,0-9.292-22.43H9.272a2.6,2.6,0,0,1-2.6-2.6V79.313a2.6,2.6,0,0,1,2.6-2.6h16.85a13.141,13.141,0,0,0,9.292-22.433L23.5,42.368a2.6,2.6,0,0,1,0-3.682L38.686,23.5a2.6,2.6,0,0,1,3.682,0l11.91,11.91a13.141,13.141,0,0,0,22.433-9.289V9.272a2.6,2.6,0,0,1,2.6-2.6h21.476a2.606,2.606,0,0,1,2.6,2.6v16.85a13.141,13.141,0,0,0,22.433,9.292l11.91-11.91a2.6,2.6,0,0,1,3.682,0l15.186,15.186a2.6,2.6,0,0,1,0,3.682l-11.914,11.91a13.141,13.141,0,0,0,9.292,22.433h16.85a2.6,2.6,0,0,1,2.6,2.6Z" fill="#007efc"/>
  <path id="Path_918" data-name="Path 918" d="M48.018,18A30.018,30.018,0,1,0,78.035,48.018,30.05,30.05,0,0,0,48.018,18Zm0,53.365A23.347,23.347,0,1,1,71.365,48.018,23.377,23.377,0,0,1,48.018,71.365Z" transform="translate(42.035 42.035)" fill="#007efc"/>
</svg>
