<svg xmlns="http://www.w3.org/2000/svg" viewBox="0 0 179.097 179.098">
  <g id="technics" transform="translate(-0.002 0)">
    <g id="Group_1123" data-name="Group 1123" transform="translate(0.036 0.036)">
      <path id="Path_949" data-name="Path 949" d="M93.884,70.277,87.378,65.45,53.8,31.44l3.673-3.568a5.316,5.316,0,0,0-.944-8.29L28.3,2.687A19.056,19.056,0,0,0,5.421,5.52,19.154,19.154,0,0,0,2.692,28.4l16.9,28.019a5.2,5.2,0,0,0,8.186.944l3.673-3.568,33.266,33.38L70.064,94.1a5.191,5.191,0,0,0,7.87.419L94.3,78.147A5.267,5.267,0,0,0,93.884,70.277Z" transform="translate(-0.101 -0.102)" fill="#c5c9f7"/>
      <path id="Path_950" data-name="Path 950" d="M284.017,253.234l-21.093-16.37a5.286,5.286,0,0,0-6.926.524l-9.759,9.759L236.48,256.8a5.276,5.276,0,0,0-.525,6.926l16.475,21.2a5.267,5.267,0,0,0,7.87.419l11.837-12.458,12.3-11.783A5.267,5.267,0,0,0,284.017,253.234Z" transform="translate(-152.77 -153.361)" fill="#c5c9f7"/>
    </g>
    <g id="Group_1124" data-name="Group 1124" transform="translate(5.356 0.035)">
      <path id="Path_951" data-name="Path 951" d="M104.193,78.147l-8.186,8.186L15.309,5.519A19.056,19.056,0,0,1,38.186,2.686l28.229,16.9a5.316,5.316,0,0,1,.944,8.29l-3.673,3.568,33.58,34.01,6.506,4.827A5.267,5.267,0,0,1,104.193,78.147Z" transform="translate(-15.309 -0.101)" fill="#a8aff1"/>
      <path id="Path_952" data-name="Path 952" d="M305.507,261.1l-12.3,11.783-25.9-25.74,9.76-9.759a5.285,5.285,0,0,1,6.925-.525l21.093,16.371A5.267,5.267,0,0,1,305.507,261.1Z" transform="translate(-179.16 -153.361)" fill="#a8aff1"/>
    </g>
    <path id="Path_953" data-name="Path 953" d="M351.394,314.9c-19.2-19.2-9.738-10.943-43.738-37.388l-15.321,15.426-15.426,15.426c26.969,34.421,18.972,25.215,36.6,42.74a28.079,28.079,0,0,0,19.939,8.4,25.409,25.409,0,0,0,14.692-4.617,17.174,17.174,0,0,0,3.253-2.938,25.987,25.987,0,0,0,0-37.044Z" transform="translate(-180.045 -180.441)" fill="#fd003a"/>
    <path id="Path_954" data-name="Path 954" d="M387.728,335.683a25.764,25.764,0,0,1-7.66,16.265l-59.06-59,15.321-15.426c34,26.445,24.535,18.184,43.738,37.388A25.978,25.978,0,0,1,387.728,335.683Z" transform="translate(-208.719 -180.442)" fill="#e50027"/>
    <path id="Path_955" data-name="Path 955" d="M175.525,20.888a5.188,5.188,0,0,0-3.883-2.833,4.835,4.835,0,0,0-4.513,1.469L153.592,33.061a5.607,5.607,0,0,1-7.451,0h-.1a5.388,5.388,0,0,1,0-7.451l13.642-13.642a5.029,5.029,0,0,0,1.469-4.617,5.148,5.148,0,0,0-2.939-3.778,36.8,36.8,0,0,0-50.476,45.439L49.049,107.844A36.666,36.666,0,0,0,3.611,158.32a5.22,5.22,0,0,0,8.4,1.364l13.537-13.537a5.291,5.291,0,0,1,7.451.1,4.986,4.986,0,0,1,0,7.346L19.457,167.135a5.167,5.167,0,0,0,1.364,8.4A36.733,36.733,0,0,0,36.666,179.1,36.533,36.533,0,0,0,71.3,130.091l58.789-58.726a36.8,36.8,0,0,0,45.439-50.477Z" transform="translate(0)" fill="#e1e4fb"/>
    <path id="Path_956" data-name="Path 956" d="M201.489,96.051a36.456,36.456,0,0,1-38.2,8.71L104.5,163.487a36.771,36.771,0,0,1-50.476,45.439,5.167,5.167,0,0,1-1.364-8.4L66.2,186.993a4.986,4.986,0,0,0,0-7.346L179.347,66.458a5.607,5.607,0,0,0,7.451,0l13.537-13.537a4.834,4.834,0,0,1,4.513-1.469,5.188,5.188,0,0,1,3.883,2.833A36.632,36.632,0,0,1,201.489,96.051Z" transform="translate(-33.205 -33.396)" fill="#c5c9f7"/>
    <path id="Path_957" data-name="Path 957" d="M391.137,390.025a4.971,4.971,0,0,1-6.926-.42l-20.988-20.988a4.971,4.971,0,0,1-.42-6.926,5.047,5.047,0,0,1,7.766-.419l20.988,20.988A5.048,5.048,0,0,1,391.137,390.025Z" transform="translate(-235.11 -233.839)" fill="#e50027"/>
    <path id="Path_958" data-name="Path 958" d="M393.381,390.025l-28.334-28.334a5.047,5.047,0,0,1,7.765-.419L393.8,382.26A5.047,5.047,0,0,1,393.381,390.025Z" transform="translate(-237.353 -233.839)" fill="#c1001f"/>
  </g>
</svg>
