<svg id="transaction" xmlns="http://www.w3.org/2000/svg" xmlns:xlink="http://www.w3.org/1999/xlink" viewBox="0 0 417.849 409.956">
  <defs>
    <radialGradient id="radial-gradient" cx="-895.116" cy="-536.296" r="511.101" gradientTransform="matrix(0.406, 0, 0, -0.406, -540.905, -760.912)" gradientUnits="userSpaceOnUse">
      <stop offset="0" stop-color="#00a2f3"/>
      <stop offset="0.273" stop-color="#03a4f3"/>
      <stop offset="0.463" stop-color="#0caaf4"/>
      <stop offset="0.627" stop-color="#1bb4f5"/>
      <stop offset="0.777" stop-color="#31c2f7"/>
      <stop offset="0.916" stop-color="#4dd4f9"/>
      <stop offset="1" stop-color="#62e1fb"/>
    </radialGradient>
    <radialGradient id="radial-gradient-2" cx="211.554" cy="-21961.634" r="511.106" gradientTransform="matrix(-0.406, 0, 0, 0.406, 297.476, -13223.411)" gradientUnits="userSpaceOnUse">
      <stop offset="0" stop-color="#be3f45"/>
      <stop offset="0.317" stop-color="#c14046"/>
      <stop offset="0.538" stop-color="#ca4148"/>
      <stop offset="0.729" stop-color="#d9444b"/>
      <stop offset="0.902" stop-color="#ef4950"/>
      <stop offset="1" stop-color="#ff4c54"/>
    </radialGradient>
  </defs>
  <path id="Path_934" data-name="Path 934" d="M408.7,95.594a18.334,18.334,0,0,0-22.1,7.937A205.076,205.076,0,0,0,16.666,145.217a18.336,18.336,0,0,0,34.806,11.547,168.446,168.446,0,0,1,301.487-37.88,18.338,18.338,0,0,0-9.007,35.358l38.178,13.969c.091.033.185.055.276.087.321.112.644.213.97.307.175.05.349.1.523.147.33.084.662.155,1,.221.171.033.341.073.511.1.355.06.713.1,1.072.141.146.015.292.04.438.051.5.042,1,.065,1.51.065h0q.714,0,1.42-.056c.113-.009.224-.028.337-.038.362-.035.724-.073,1.082-.13.139-.022.276-.055.416-.08.334-.06.666-.123.995-.2.154-.037.307-.084.461-.126.312-.082.621-.167.926-.266.046-.015.091-.024.138-.039.091-.03.176-.072.266-.1.4-.142.8-.3,1.2-.464.169-.072.337-.144.5-.221.384-.179.76-.372,1.13-.577.117-.064.24-.122.356-.189.446-.259.878-.542,1.3-.838.166-.116.323-.239.483-.36.282-.212.56-.431.831-.659.149-.126.3-.251.44-.382.309-.278.607-.569.9-.868.08-.083.167-.162.245-.247q.567-.608,1.082-1.272c.024-.031.045-.064.068-.095.3-.4.593-.816.867-1.245.073-.115.142-.232.212-.348q.317-.522.6-1.067c.078-.15.156-.3.229-.452.165-.342.318-.691.464-1.047.068-.165.14-.327.2-.494.021-.057.048-.112.069-.17l13.97-38.178A18.337,18.337,0,0,0,408.7,95.594Z" transform="translate(-2.892 -4.836)" fill="url(#radial-gradient)"/>
  <path id="Path_935" data-name="Path 935" d="M12.04,379.34a18.334,18.334,0,0,0,22.1-7.937,205.077,205.077,0,0,0,369.937-41.686A18.336,18.336,0,1,0,369.27,318.17,168.445,168.445,0,0,1,67.784,356.052a18.338,18.338,0,0,0,9.007-35.359L38.613,306.724c-.091-.034-.184-.056-.276-.087-.321-.112-.644-.213-.97-.307-.175-.05-.348-.1-.523-.146-.33-.084-.662-.155-1-.221-.171-.034-.341-.074-.511-.1-.355-.059-.712-.1-1.072-.139-.146-.016-.292-.042-.438-.052-.5-.041-1-.065-1.51-.065h0c-.476,0-.95.017-1.42.056-.113.009-.224.028-.337.037-.362.036-.724.074-1.082.131-.139.022-.277.054-.416.08-.334.06-.666.123-.995.2-.154.037-.307.084-.461.125-.311.083-.621.168-.926.266-.046.015-.091.024-.138.039-.091.03-.175.071-.266.1-.4.142-.8.3-1.2.464-.169.071-.337.145-.5.222-.384.178-.76.371-1.13.577-.118.065-.24.122-.356.189-.446.26-.878.542-1.3.839-.166.116-.323.239-.483.36-.282.213-.56.432-.831.661q-.223.186-.44.382c-.308.277-.607.569-.9.868-.08.084-.166.163-.245.247q-.567.609-1.081,1.273c-.024.03-.045.063-.069.1-.3.4-.593.814-.867,1.243-.073.116-.142.232-.212.348-.211.349-.411.7-.6,1.068-.078.151-.156.3-.229.453-.166.342-.318.691-.464,1.047-.068.165-.14.326-.2.494-.021.057-.048.111-.069.169L1.122,355.82A18.334,18.334,0,0,0,12.04,379.34Z" transform="translate(0 -60.143)" fill="url(#radial-gradient-2)"/>
</svg>
