<svg xmlns="http://www.w3.org/2000/svg" xmlns:xlink="http://www.w3.org/1999/xlink" version="1.1" x="0px" y="0px" viewBox="0 0 100 125" style="enable-background:new 0 0 100 100;" xml:space="preserve"><g><path d="M96,58.4c0-11.5-11.1-20.8-24.7-20.8c-1.6,0-3.2,0.1-4.7,0.4c-2.3-12.7-15.4-22.4-31.1-22.4C18.1,15.6,4,27.5,4,42.1   c0,9.5,6.1,18.3,15.9,23c0.1,0.5,0.1,1,0.1,1.5c0,2.4-0.9,4.8-2.5,6.6c-0.2,0.2-0.3,0.6-0.2,0.9c0.1,0.3,0.3,0.6,0.6,0.7   c1.4,0.5,2.7,0.7,4.1,0.7c4.7,0,9-2.8,10.9-7.1c0.9,0.1,1.7,0.1,2.6,0.1c4.6,0,9-0.9,13-2.4c4,8.2,13.9,13.6,24.7,12.9   c1.6,3.3,4.9,5.5,8.6,5.5c1.1,0,2.2-0.2,3.3-0.6c0.3-0.1,0.5-0.4,0.6-0.7c0.1-0.3,0-0.7-0.2-0.9c-1.2-1.4-1.9-3.2-1.9-5   c0-0.3,0-0.7,0.1-1C91.3,72.7,96,65.8,96,58.4z M48.6,64C48.6,64,48.6,64.1,48.6,64c-4,1.7-8.4,2.6-13.1,2.6c-1,0-2.1,0-3.1-0.1   c-0.5,0-0.9,0.2-1,0.6c-1.5,3.9-5.3,6.5-9.4,6.5c-0.7,0-1.4-0.1-2.1-0.2c1.4-2,2.1-4.3,2.1-6.8c0-0.8-0.1-1.6-0.2-2.4   c-0.1-0.3-0.3-0.6-0.6-0.7C11.8,59.2,6,51,6,42.1c0-13.5,13.2-24.5,29.5-24.5S65,28.6,65,42.1C65,51.7,58.4,60,48.6,64   C48.7,64,48.6,64,48.6,64z M83.1,82.5c-0.4,0.1-0.9,0.1-1.3,0.1c-3.1,0-6-2-7-4.9c-0.2-0.4-0.6-0.7-1-0.6c-0.8,0.1-1.6,0.1-2.4,0.1   c-9.2,0-17.5-4.7-21-11.7C60.3,61,67,52.2,67,42.1c0-0.7,0-1.4-0.1-2.1c1.5-0.2,2.9-0.4,4.4-0.4C83.8,39.6,94,48,94,58.4   c0,6.8-4.5,13.1-11.7,16.4c-0.3,0.1-0.5,0.4-0.6,0.7c-0.1,0.6-0.2,1.3-0.2,1.9C81.6,79.2,82.1,81,83.1,82.5z"/><path d="M20.5,36.6c-2.2,0-4,1.8-4,4s1.8,4,4,4s4-1.8,4-4S22.7,36.6,20.5,36.6z M20.5,42.6c-1.1,0-2-0.9-2-2s0.9-2,2-2s2,0.9,2,2   S21.6,42.6,20.5,42.6z"/><path d="M35.5,36.6c-2.2,0-4,1.8-4,4s1.8,4,4,4s4-1.8,4-4S37.7,36.6,35.5,36.6z M35.5,42.6c-1.1,0-2-0.9-2-2s0.9-2,2-2s2,0.9,2,2   S36.6,42.6,35.5,42.6z"/><path d="M50.5,36.6c-2.2,0-4,1.8-4,4s1.8,4,4,4s4-1.8,4-4S52.7,36.6,50.5,36.6z M50.5,42.6c-1.1,0-2-0.9-2-2s0.9-2,2-2s2,0.9,2,2   S51.6,42.6,50.5,42.6z"/></g></svg>