<svg xmlns="http://www.w3.org/2000/svg" width="57" height="51.656" viewBox="0 0 57 51.656">
  <defs>
    <style>
      .cls-1 {
        fill: #007efc;
      }
    </style>
  </defs>
  <path id="Subtraction_2" data-name="Subtraction 2" class="cls-1" d="M3049.118-1793.344v-.234c0-.073,0-.136,0-.192,0,.013,0,.013,0,.013s-.007-.051-.018-.731c-.106-6.728-.855-9.042-2.112-10.766a8.356,8.356,0,0,0-3.554-2.7,27.6,27.6,0,0,0-6.195-1.7,4.458,4.458,0,0,1-1.152.927,7.221,7.221,0,0,1-3.7.927,7.221,7.221,0,0,1-3.7-.927,4.437,4.437,0,0,1-1.152-.927,27.833,27.833,0,0,0-6.143,1.679,8.441,8.441,0,0,0-3.551,2.649c-1.685,2.249-2.068,5.554-2.161,10.5-.013.641-.02.792-.023.806,0,0,0,0,0-.009v-.026c0,.1,0,.242,0,.447v.1a28.758,28.758,0,0,1-8.479-9.9,28.369,28.369,0,0,1-2.35-6.246,28.621,28.621,0,0,1-.827-6.845,28.322,28.322,0,0,1,2.24-11.094,28.405,28.405,0,0,1,6.108-9.059,28.4,28.4,0,0,1,9.059-6.108A28.321,28.321,0,0,1,3032.5-1845a28.324,28.324,0,0,1,11.094,2.24,28.41,28.41,0,0,1,9.059,6.108,28.405,28.405,0,0,1,6.108,9.059A28.322,28.322,0,0,1,3061-1816.5a28.614,28.614,0,0,1-.845,6.915,28.355,28.355,0,0,1-2.4,6.3,28.751,28.751,0,0,1-8.638,9.94ZM3032.388-1832c-7.786,0-8.859,5.172-8.859,10.76,0,5.933,3.974,10.759,8.859,10.759s8.859-4.827,8.859-10.759C3041.247-1826.829,3040.174-1832,3032.388-1832Z" transform="translate(-3004 1845)"/>
</svg>
