<svg xmlns="http://www.w3.org/2000/svg" viewBox="0 0 480 480">
  <g id="user" transform="translate(0 0)">
    <path d="M92.886,309.624,20.978,348.4a64.616,64.616,0,0,0-11.541,8.118,242.991,242.991,0,0,0,309.452.791,63.851,63.851,0,0,0-12.677-8.4l-77-38.055a29,29,0,0,1-16.233-25.963V255.027a115.15,115.15,0,0,0,7.285-9.26A174.352,174.352,0,0,0,244.2,198.085a23.946,23.946,0,0,0,17.152-22.745V143.462a23.682,23.682,0,0,0-8.058-17.665V79.714S262.868,8,164.622,8,75.953,79.714,75.953,79.714V125.8A23.65,23.65,0,0,0,67.9,143.462V175.34A23.837,23.837,0,0,0,79.045,195.4C87.1,230.071,108.2,255.027,108.2,255.027v29.128A29.009,29.009,0,0,1,92.886,309.624Z" transform="translate(75.401 67.459)" fill="#deeaf5"/>
    <g transform="translate(0 0)">
      <path d="M244.112.036C111.581-2.231,2.3,103.472.036,236.125A239.6,239.6,0,0,0,85.57,423.9a63.775,63.775,0,0,1,11.385-8.1l71.613-39.1a29.286,29.286,0,0,0,15.243-25.7V321.62s-21.021-25.165-29.037-60.131a24.115,24.115,0,0,1-11.1-20.225V209.119a24.008,24.008,0,0,1,8.024-17.813V144.837S142.158,72.522,240,72.522s88.305,72.314,88.305,72.314v46.469a23.975,23.975,0,0,1,8.024,17.813v32.146A24.105,24.105,0,0,1,319.248,264.2a176.682,176.682,0,0,1-23.838,48.083,115.923,115.923,0,0,1-7.255,9.337v30.115a29.264,29.264,0,0,0,16.167,26.181l76.685,38.374a63.851,63.851,0,0,1,12.589,8.449,239.692,239.692,0,0,0,86.367-180.4C482.246,111.685,376.651,2.3,244.112.036Z" transform="translate(0 0)"/>
    </g>
  </g>
</svg>
