<svg height="512" viewBox="0 0 64 64" width="512" xmlns="http://www.w3.org/2000/svg"><path d="m16 14h2v13h-2z" fill="#32b1cc"/><path d="m29 13h16v16h-16z" fill="#ffd782"/><path d="m48 13h-22l2-4h18z" fill="#ceac9a"/><path d="m46 9h-18v-4a2 2 0 0 1 2-2h5l2 2 2-2h5a2 2 0 0 1 2 2z" fill="#995f5b"/><path d="m32 24h10v2h-10z" fill="#394d5c"/><path d="m26 33h22v24h-22z" fill="#995f5b" transform="matrix(-1 0 0 -1 74 90)"/><circle cx="17" cy="22" fill="#ffd782" r="3"/><path d="m23 9a6.008 6.008 0 0 1 -8.86 5.28 5.894 5.894 0 0 1 -1.58-1.26 5.932 5.932 0 0 1 -1.56-4.02 6 6 0 0 1 6-6 5.968 5.968 0 0 1 3.93 1.48 5.935 5.935 0 0 1 2.07 4.52z" fill="#cfdfe8"/><path d="m20.93 4.48-3.22 3.23-1.42-1.42 2.88-2.88a5.772 5.772 0 0 1 1.76 1.07z" fill="#7fcac9"/><path d="m17.71 10.71-3.57 3.57a5.894 5.894 0 0 1 -1.58-1.26l3.73-3.73z" fill="#7fcac9"/><path d="m36 18h2v4h-2z" fill="#394d5c"/><path d="m26 57h22v4h-22z" fill="#aa897b"/><path d="m14 27h6v4h-6z" fill="#ceac9a"/><path d="m14 31h6v8h-6z" fill="#e2bfaf"/><path d="m20 33h6v6h-6z" fill="#ceac9a"/><path d="m37 41-4-8h8z" fill="#ffd782"/><path d="m36 41h2v16h-2z" fill="#4c2b2b"/><path d="m48 33h6a0 0 0 0 1 0 0v14a0 0 0 0 1 0 0h-3a3 3 0 0 1 -3-3v-11a0 0 0 0 1 0 0z" fill="#ceac9a" transform="matrix(-1 0 0 -1 102 80)"/><path d="m48 47h6v14h-6z" fill="#e2bfaf" transform="matrix(-1 0 0 -1 102 108)"/><path d="m29 45h5v2h-5z" fill="#6d3e3d"/><path d="m40 45h5v2h-5z" fill="#6d3e3d"/><path d="m29 13h8a0 0 0 0 1 0 0v2a4 4 0 0 1 -4 4 4 4 0 0 1 -4-4v-2a0 0 0 0 1 0 0z" fill="#aabece"/><path d="m37 13h8a0 0 0 0 1 0 0v2a4 4 0 0 1 -4 4 4 4 0 0 1 -4-4v-2a0 0 0 0 1 0 0z" fill="#7d8d9c"/><g fill="#6d3e3d"><path d="m33 33h-4l4 9 4-1z"/><path d="m41 33h4l-4 9-4-1z"/></g></svg>