<svg height="512pt" viewBox="-65 0 512 512.00001" width="512pt" xmlns="http://www.w3.org/2000/svg"><path d="m360.59375 370.941406c-3.875-1.75-8.4375-.027344-10.191406 3.847656l-34.578125 76.535157-34.574219-76.535157c-.019531-.035156-.039062-.066406-.054688-.105468-.0625-.128906-.128906-.253906-.199218-.382813-.050782-.097656-.105469-.199219-.160156-.292969-.070313-.121093-.152344-.234374-.230469-.351562-.0625-.09375-.125-.191406-.191407-.28125-.082031-.109375-.171874-.214844-.257812-.320312-.070312-.085938-.140625-.175782-.21875-.261719-.09375-.101563-.191406-.199219-.289062-.296875-.082032-.078125-.15625-.15625-.238282-.230469-.105468-.09375-.214844-.183594-.324218-.273437-.082032-.066407-.167969-.140626-.257813-.207032-.109375-.082031-.222656-.15625-.339844-.230468-.097656-.066407-.191406-.128907-.289062-.191407-.113281-.066406-.230469-.128906-.347657-.191406-.109374-.058594-.214843-.113281-.328124-.167969-.042969-.019531-.082032-.042968-.125-.0625-.078126-.039062-.164063-.0625-.242188-.097656-.109375-.042969-.21875-.085938-.328125-.125-.136719-.050781-.277344-.09375-.414063-.136719-.097656-.027343-.195312-.054687-.292968-.082031-.152344-.035156-.300782-.070312-.453125-.097656-.089844-.019532-.183594-.035156-.277344-.050782-.152344-.023437-.304687-.039062-.457031-.054687-.097656-.007813-.195313-.015625-.292969-.019531-.148437-.007813-.292969-.011719-.441406-.011719-.105469 0-.214844.003906-.324219.007813-.136719.003906-.269531.015624-.40625.03125-.117188.011718-.234375.023437-.351562.042968-.128907.015625-.257813.039063-.382813.066406-.121094.023438-.238281.050782-.359375.078126-.128906.03125-.253906.066406-.378906.105468-.113282.035156-.226563.070313-.339844.113282-.132812.042968-.261719.097656-.386719.148437-.070312.03125-.140625.050781-.210937.085937-.039063.015626-.074219.035157-.109375.054688-.125.058594-.25.125-.371094.191406-.105469.054688-.210937.109375-.308594.167969-.113281.066406-.21875.140625-.324219.210937-.105468.070313-.210937.140626-.3125.214844-.09375.070313-.1875.148438-.28125.222656-.101562.085938-.203124.167969-.300781.253907-.085937.078125-.167969.164062-.25.246093-.09375.09375-.191406.1875-.28125.285157-.078125.085937-.148437.179687-.222656.269531-.085937.101562-.175781.207031-.253906.3125-.066407.09375-.128907.1875-.195313.285156-.078125.113282-.15625.230469-.226562.351563-.054688.09375-.109375.191406-.160156.292969-.070313.125-.136719.25-.199219.382812-.015625.035156-.035157.070312-.054688.105469l-34.574219 76.535156-34.578124-76.535156c-.019532-.035157-.039063-.070313-.054688-.105469-.0625-.128906-.128906-.257812-.195312-.382812-.054688-.097657-.109376-.199219-.164063-.292969-.070313-.121094-.148437-.234375-.226563-.347657-.0625-.097656-.125-.195312-.195312-.285156-.078125-.109375-.164062-.210937-.25-.3125-.074219-.089844-.148438-.183594-.226562-.269531-.089844-.101563-.1875-.195313-.28125-.289063-.082032-.082031-.164063-.164062-.25-.242187-.097657-.089844-.203126-.175781-.308594-.261719-.089844-.070312-.179688-.144531-.269532-.214844-.105468-.078124-.21875-.152343-.332031-.226562-.097656-.066406-.199219-.132812-.300781-.195312-.109375-.066407-.222656-.125-.335938-.1875-.113281-.058594-.222656-.117188-.339843-.171876-.039063-.019531-.078125-.042968-.121094-.0625-.078125-.039062-.15625-.0625-.238281-.09375-.109375-.046874-.222656-.09375-.335938-.132812-.132812-.050781-.269531-.089844-.40625-.132812-.097656-.03125-.199218-.058594-.300781-.082032-.148437-.039062-.296875-.070312-.445313-.101562-.09375-.015625-.1875-.035156-.28125-.046875-.152343-.023438-.304687-.042969-.457031-.058594-.097656-.007813-.195312-.015625-.292969-.019531-.148437-.007813-.292968-.011719-.441406-.011719-.109375 0-.214844.003906-.324218.007813-.136719.003906-.273438.015624-.410157.03125-.117187.011718-.230469.023437-.347656.042968-.132813.015625-.257813.039063-.386719.066406-.121094.023438-.238281.046876-.355468.078126-.128907.03125-.257813.066406-.382813.105468-.113281.035156-.226563.070313-.335937.109375-.132813.046875-.265626.097657-.394532.152344-.066406.03125-.136718.050781-.207031.082031-.039063.019532-.070313.039063-.109375.054688-.125.0625-.25.125-.371094.191406-.105468.054688-.207031.109375-.308594.171875-.109374.066406-.21875.136719-.328124.210937-.101563.070313-.207032.136719-.304688.210938-.097656.070312-.191406.152344-.285156.226562-.101563.085938-.203125.164063-.300782.253907-.085937.078125-.167968.164062-.25.246093-.09375.09375-.191406.183594-.28125.28125-.078124.089844-.148437.179688-.222656.269532-.085937.105468-.171875.207031-.253906.316406-.066406.089844-.128906.1875-.195312.28125-.078126.117188-.15625.230469-.226563.351562-.054687.09375-.109375.195313-.160156.292969-.070313.128907-.136719.253907-.199219.382813-.015625.039062-.035156.070312-.054688.109375l-34.574218 76.53125-34.578125-76.53125c-.015625-.039063-.039063-.070313-.054688-.109375-.0625-.128906-.128906-.253906-.195312-.378906-.054688-.101563-.109375-.199219-.164063-.296876-.070312-.117187-.148437-.230468-.222656-.347656-.066406-.09375-.128906-.191406-.199219-.285156-.078125-.105469-.164062-.210938-.25-.3125-.074219-.089844-.148437-.183594-.226562-.269531-.089844-.097657-.1875-.191407-.28125-.285157-.082031-.082031-.164063-.164062-.25-.242187-.101563-.09375-.207031-.179687-.3125-.265625-.089844-.070312-.175781-.144531-.265625-.210938-.109375-.082031-.222656-.152343-.332032-.230468-.101562-.066406-.199218-.132813-.300781-.191406-.109375-.066407-.222656-.128907-.339843-.1875-.109376-.0625-.222657-.121094-.335938-.171876-.039062-.023437-.078125-.042968-.121094-.0625-.078125-.039062-.160156-.0625-.238281-.09375-.113281-.046874-.222656-.09375-.335937-.132812-.132813-.046875-.269532-.089844-.40625-.132812-.097657-.027344-.199219-.058594-.296876-.082032-.152343-.039062-.300781-.070312-.449218-.101562-.09375-.015625-.1875-.035156-.28125-.046875-.152344-.023438-.304688-.042969-.457032-.054688-.097656-.011719-.195312-.019531-.292968-.023437-.148438-.007813-.292969-.011719-.441406-.011719-.109376 0-.214844.003906-.324219.007813-.136719.007812-.273438.015624-.410157.03125-.117187.011718-.230468.023437-.347656.042968-.128906.019532-.257812.042969-.386718.066406-.117188.023438-.234376.050782-.355469.078126-.128907.03125-.253907.070312-.382813.105468-.113281.035156-.226562.070313-.335937.109375-.132813.046875-.265625.101563-.394531.15625-.066407.027344-.136719.046875-.207032.078125-.035156.019532-.070312.039063-.105468.054688-.128907.0625-.253907.128906-.378907.195312-.101562.054688-.203125.109375-.304687.167969-.109375.066406-.21875.140625-.328125.214844-.101563.066406-.207031.136719-.304688.207031-.097656.074219-.191406.152344-.285156.230469-.101563.082031-.203125.164062-.296875.25-.089844.078125-.171875.164062-.257812.25-.09375.09375-.1875.183593-.273438.28125-.078125.085937-.152344.179687-.226562.269531-.085938.105469-.171876.207031-.25.3125-.070313.09375-.132813.191406-.195313.285156-.078125.113282-.15625.230469-.226563.347656-.058593.09375-.109374.195313-.164062.292969-.066406.128907-.132812.253907-.195312.382813-.015626.039062-.039063.070312-.054688.109375l-34.578125 76.53125-34.578125-76.53125c-1.75-3.878907-6.3125-5.597657-10.191406-3.851563-3.875 1.753906-5.597656 6.316406-3.847656 10.195313l40.164062 88.898437-14.046875 31.085938c-1.75 3.878906-.027344 8.441406 3.851563 10.195312 1.027343.464844 2.105468.683594 3.167968.683594 2.933594 0 5.734375-1.6875 7.023438-4.535156l8.457031-18.71875 8.457031 18.71875c1.289063 2.847656 4.089844 4.535156 7.027344 4.535156 1.058594 0 2.136719-.222656 3.167969-.683594 3.875-1.753906 5.597656-6.316406 3.847656-10.195312l-14.046875-31.085938 33.144531-73.359375 33.144531 73.359375-14.042968 31.085938c-1.753906 3.878906-.03125 8.441406 3.847656 10.195312 1.03125.464844 2.105469.683594 3.167969.683594 2.933593 0 5.738281-1.6875 7.023437-4.535156l8.457032-18.71875 8.460937 18.71875c1.285156 2.847656 4.089844 4.535156 7.023437 4.535156 1.058594 0 2.136719-.222656 3.167969-.683594 3.875-1.753906 5.597657-6.316406 3.847657-10.195312l-14.042969-31.085938 33.148437-73.363281 33.144532 73.359375-14.042969 31.089844c-1.75 3.875-.03125 8.441406 3.847656 10.191406 1.03125.464844 2.105469.683594 3.167969.683594 2.933594 0 5.738281-1.683594 7.023437-4.53125l8.460938-18.722656 8.457031 18.722656c1.285156 2.847656 4.089844 4.53125 7.023438 4.53125 1.0625 0 2.140624-.21875 3.167968-.683594 3.875-1.75 5.601563-6.316406 3.847656-10.191406l-14.042968-31.089844 33.144531-73.359375 33.144531 73.359375-14.046875 31.089844c-1.75 3.875-.027343 8.441406 3.847657 10.191406 1.03125.464844 2.105468.683594 3.167968.683594 2.933594 0 5.738282-1.683594 7.023438-4.53125l8.460937-18.722656 8.457031 18.722656c1.285157 2.847656 4.089844 4.53125 7.023438 4.53125 1.0625 0 2.140625-.21875 3.167969-.683594 3.878906-1.75 5.601562-6.316406 3.847656-10.191406l-14.042969-31.089844 40.164063-88.898438c1.746093-3.875.023437-8.4375-3.855469-10.191406zm0 0" fill="#57565c"/><path d="m291.257812 41.511719c-55.351562-55.347657-145.09375-55.347657-200.445312 0-55.351562 55.351562-55.351562 145.09375 0 200.445312 55.351562 55.351563 145.09375 55.351563 200.445312 0 55.351563-55.351562 55.351563-145.09375 0-200.445312zm0 0" fill="#f26d33"/><path d="m291.261719 41.511719c-8.046875-8.046875-16.824219-14.914063-26.113281-20.621094 33.550781 54.609375 26.683593 127.03125-20.621094 174.335937-47.304688 47.304688-119.726563 54.171876-174.335938 20.621094 5.707032 9.289063 12.578125 18.0625 20.621094 26.109375 55.351562 55.351563 145.09375 55.351563 200.449219 0 55.351562-55.351562 55.351562-145.09375 0-200.445312zm0 0" fill="#e0501e"/><path d="m371.804688 377.960938h-361.535157c-5.671875 0-10.269531-4.597657-10.269531-10.269532v-39.03125c0-5.671875 4.597656-10.269531 10.269531-10.269531h361.53125c5.671875 0 10.273438 4.597656 10.273438 10.269531v39.03125c0 5.671875-4.597657 10.269532-10.269531 10.269532zm0 0" fill="#ffe266"/><path d="m351.261719 318.390625v10.273437c0 11.34375-9.199219 20.539063-20.542969 20.539063h-330.71875v18.488281c0 5.671875 4.597656 10.273438 10.273438 10.273438h361.53125c5.671874 0 10.269531-4.601563 10.269531-10.273438v-39.027344c0-5.671874-4.597657-10.273437-10.269531-10.273437zm0 0" fill="#fcd21d"/><path d="m332.671875 146.90625c-.390625-.023438-.78125-.027344-1.179687.007812-32.164063 2.910157-62.597657 16.28125-86.53125 37.851563l-43.03125-43.03125 94.628906-94.625c-1.707032-1.902344-3.46875-3.769531-5.296875-5.597656s-3.699219-3.589844-5.597657-5.296875l-94.628906 94.625-43.027344-43.03125c21.566407-23.929688 34.9375-54.363282 37.847657-86.53125.039062-.394532.03125-.789063.007812-1.175782-5.191406.1875-10.378906.65625-15.527343 1.410157-2.882813 27.980469-14.566407 54.421875-33.238282 75.386719l-40.6875-40.683594c-1.898437 1.707031-3.769531 3.46875-5.597656 5.296875s-3.589844 3.695312-5.296875 5.597656l40.6875 40.683594c-20.96875 18.675781-47.410156 30.359375-75.386719 33.238281-.757812 5.152344-1.222656 10.335938-1.414062 15.53125.160156.011719.316406.023438.476562.023438.230469 0 .464844-.007813.703125-.03125 32.160157-2.910157 62.597657-16.28125 86.53125-37.851563l43.03125 43.03125-94.628906 94.628906c1.707031 1.898438 3.46875 3.765625 5.296875 5.59375s3.699219 3.59375 5.597656 5.300781l94.625-94.628906 43.03125 43.03125c-21.570312 23.929688-34.9375 54.367188-37.847656 86.53125-.039062.398438-.03125.789063-.007812 1.175782 5.191406-.1875 10.378906-.652344 15.527343-1.410157 2.882813-27.976562 14.566407-54.421875 33.238281-75.386719l40.6875 40.6875c1.898438-1.707031 3.769532-3.472656 5.597657-5.300781s3.589843-3.695312 5.296875-5.59375l-40.6875-40.6875c20.96875-18.671875 47.410156-30.355469 75.386718-33.238281.757813-5.152344 1.222657-10.335938 1.414063-15.53125zm0 0" fill="#57565c"/></svg>