<svg height="480pt" viewBox="0 0 480 480" width="480pt" xmlns="http://www.w3.org/2000/svg"><path d="m400 96v152c0 22.089844-71.632812 40-160 40s-160-17.910156-160-40v-152" fill="#5b6673"/><path d="m480 400h-384c-8.839844 0-16-7.160156-16-16v-48c0-8.839844 7.160156-16 16-16h384zm0 0" fill="#599072"/><path d="m400 480h-384c-8.839844 0-16-7.160156-16-16v-48c0-8.839844 7.160156-16 16-16h384zm0 0" fill="#eebc5a"/><path d="m40 400h16v80h-16zm0 0" fill="#f8cf6a"/><path d="m48 424h280v16h-280zm0 0" fill="#f8cf6a"/><path d="m344 440h56v16h-56zm0 0" fill="#f8cf6a"/><path d="m120 320h16v80h-16zm0 0" fill="#70b48f"/><path d="m128 344h280v16h-280zm0 0" fill="#70b48f"/><path d="m424 360h56v16h-56zm0 0" fill="#70b48f"/><g fill="#575c61"><path d="m232 152h16v48h-16zm0 0"/><path d="m264 144h16v40h-16zm0 0"/><path d="m296 128h16v40h-16zm0 0"/><path d="m168 128h16v48h-16zm0 0"/><path d="m200 144h16v40h-16zm0 0"/><path d="m480 80-240 80-240-80 240-80zm0 0"/><path d="m136 264h-16v-144c0-3.144531 1.832031-5.984375 4.6875-7.28125l101.023438-45.917969 6.625 14.558594-96.335938 43.792969zm0 0"/></g><path d="m272 72c0-8.835938-14.328125-16-32-16s-32 7.164062-32 16 14.328125 16 32 16 32-7.164062 32-16zm0 0" fill="#bab8b9"/><path d="m136 256h-16c-8.839844 0-16 7.160156-16 16s7.160156 16 16 16h16c8.839844 0 16-7.160156 16-16s-7.160156-16-16-16zm0 0" fill="#575c61"/></svg>