<svg xmlns="http://www.w3.org/2000/svg" width="56.619" height="38.69" viewBox="0 0 56.619 38.69"><g transform="translate(0.944 4.718)"><path d="M30.366,44.028H3V11H6.775V40.253H26.591A3.775,3.775,0,0,1,30.366,44.028Z" transform="translate(-3 -11)" fill="#78b9eb"/><path d="M59.366,11V44.028H32a3.775,3.775,0,0,1,3.775-3.775H55.591V11Z" transform="translate(-4.634 -11)" fill="#78b9eb"/></g><path d="M54.845,9.775V6.944A.944.944,0,0,0,53.9,6H34.084A4.7,4.7,0,0,0,30.31,7.917,4.7,4.7,0,0,0,26.535,6H6.718a.944.944,0,0,0-.944.944V9.775H2.944A.944.944,0,0,0,2,10.718V43.746a.944.944,0,0,0,.944.944H57.676a.944.944,0,0,0,.944-.944V10.718ZM3.887,42.8V11.662H5.775v28.31a.944.944,0,0,0,.944.944H26.535A2.831,2.831,0,0,1,29.192,42.8ZM29.366,40a4.669,4.669,0,0,0-2.831-.968H7.662V7.887H26.535a2.831,2.831,0,0,1,2.831,2.831V40ZM31.253,26.37V10.718a2.831,2.831,0,0,1,2.831-2.831H52.957V39.028H34.084A4.669,4.669,0,0,0,31.253,40ZM56.732,42.8H31.427a2.831,2.831,0,0,1,2.657-1.887H53.9a.944.944,0,0,0,.944-.944V11.662h1.887Z" transform="translate(-2 -6)" fill="#006df0"/></svg>