<svg xmlns="http://www.w3.org/2000/svg" xmlns:xlink="http://www.w3.org/1999/xlink" width="149.675" height="150.704" viewBox="0 0 149.675 150.704"><defs><linearGradient id="a" x1="0.052" y1="0.634" x2="0.825" y2="0.642" gradientUnits="objectBoundingBox"><stop offset="0" stop-color="#0076ff"/><stop offset="1" stop-color="#04abe8"/></linearGradient></defs><path d="M52.362-61.246A28.906,28.906,0,0,1,68.4-50.049q5.75,8.171,5.75,19.67,0,14.526-9.079,23.6A30.428,30.428,0,0,1,42.678,2.3q-14.526,0-23.3-9.381T10.6-30.379A66.76,66.76,0,0,1,12.113-44.6a172.231,172.231,0,0,1,6.355-20.275L43.888-148.4H72.94Z" transform="translate(75.524 148.4)" fill="url(#a)"/><path d="M52.362-61.246A28.906,28.906,0,0,1,68.4-50.049q5.75,8.171,5.75,19.67,0,14.526-9.079,23.6A30.428,30.428,0,0,1,42.678,2.3q-14.526,0-23.3-9.381T10.6-30.379A66.76,66.76,0,0,1,12.113-44.6a172.231,172.231,0,0,1,6.355-20.275L43.888-148.4H72.94Z" transform="translate(-10.6 148.4)" fill="url(#a)"/></svg>